<?xml version="1.0" standalone="no"?>
<!DOCTYPE svg PUBLIC "-//W3C//DTD SVG 20010904//EN"
 "http://www.w3.org/TR/2001/REC-SVG-20010904/DTD/svg10.dtd">
<svg version="1.0" xmlns="http://www.w3.org/2000/svg"
 width="512.000000pt" height="512.000000pt" viewBox="0 0 512.000000 512.000000"
 preserveAspectRatio="xMidYMid meet">
<metadata>
Created by potrace 1.14, written by Peter Selinger 2001-2017
</metadata>
<g transform="translate(0.000000,512.000000) scale(0.100000,-0.100000)"
fill="#000000" stroke="none">
<path d="M2335 5029 c-22 -4 -58 -9 -80 -13 -22 -3 -51 -8 -65 -11 -35 -7
-170 -34 -200 -40 -14 -3 -38 -8 -54 -10 -52 -10 -178 -47 -245 -72 -93 -35
-235 -96 -241 -103 -3 -4 -18 -13 -35 -22 -105 -53 -313 -190 -414 -273 -109
-90 -294 -276 -361 -365 -19 -25 -37 -47 -40 -50 -17 -16 -164 -248 -199 -315
-81 -153 -178 -402 -207 -530 -1 -5 -10 -39 -19 -75 -23 -89 -25 -98 -29 -155
-2 -27 -7 -66 -10 -85 -15 -83 -17 -124 -20 -285 -1 -93 1 -183 5 -200 5 -16
11 -52 14 -79 3 -27 7 -51 9 -55 2 -3 7 -28 10 -55 4 -27 9 -52 10 -55 2 -3 7
-26 10 -51 23 -176 144 -506 242 -665 13 -22 27 -47 31 -55 6 -12 81 -125 160
-240 52 -76 239 -275 358 -380 98 -86 310 -228 450 -300 88 -45 258 -121 279
-124 6 -1 16 -5 22 -8 21 -14 360 -106 414 -113 30 -4 62 -9 70 -10 118 -21
505 -28 605 -11 148 25 399 79 484 105 235 71 455 184 698 358 164 117 338
285 470 453 181 232 335 534 417 820 8 30 24 87 35 125 11 39 23 88 27 110 11
59 14 691 4 755 -5 30 -11 73 -14 95 -7 48 -11 69 -25 121 -18 70 -41 169 -44
189 -1 11 -5 25 -8 30 -4 6 -14 35 -24 65 -10 30 -33 88 -51 128 -18 39 -31
72 -28 72 2 0 -6 17 -20 38 -23 36 -91 154 -111 193 -5 10 -13 19 -17 19 -5 0
-8 5 -8 11 0 21 -154 230 -230 313 -47 50 -157 158 -225 221 -52 48 -240 185
-253 185 -6 0 -12 3 -14 8 -5 11 -143 95 -218 132 -136 67 -348 150 -418 164
-10 2 -24 6 -32 9 -8 3 -28 9 -45 13 -16 4 -32 8 -35 9 -10 3 -125 29 -140 31
-14 3 -41 6 -147 20 -27 3 -52 9 -58 12 -14 8 -393 10 -440 1z"/>
</g>
</svg>
