<?xml version="1.0" standalone="no"?>
<!DOCTYPE svg PUBLIC "-//W3C//DTD SVG 20010904//EN"
 "http://www.w3.org/TR/2001/REC-SVG-20010904/DTD/svg10.dtd">
<svg version="1.0" xmlns="http://www.w3.org/2000/svg"
 width="1000.000000pt" height="1000.000000pt" viewBox="0 0 1000.000000 1000.000000"
 preserveAspectRatio="xMidYMid meet">
<metadata>
Created by potrace 1.14, written by Peter Selinger 2001-2017
</metadata>
<g transform="translate(0.000000,1000.000000) scale(0.100000,-0.100000)"
fill="#000000" stroke="none">
<path d="M4885 8541 c-122 -32 -216 -136 -233 -258 l-7 -47 -140 -23 c-226
-37 -349 -71 -575 -160 -207 -81 -477 -237 -644 -371 -56 -45 -72 -53 -85 -44
-95 68 -179 91 -264 72 -220 -47 -318 -301 -187 -483 l32 -45 -89 -134 c-238
-355 -386 -745 -440 -1153 l-8 -60 -54 -7 c-157 -23 -275 -174 -258 -333 14
-135 126 -249 269 -273 l41 -7 23 -139 c64 -379 211 -750 419 -1059 121 -178
113 -159 81 -197 -57 -69 -71 -108 -71 -205 0 -81 3 -95 29 -143 94 -168 308
-213 461 -97 l46 36 102 -75 c347 -256 788 -440 1198 -502 56 -8 106 -17 109
-19 4 -3 10 -25 14 -51 24 -176 210 -293 388 -244 100 28 188 125 209 231 6
33 15 61 18 64 4 2 52 11 106 20 412 66 820 233 1153 472 68 48 129 92 137 97
9 7 25 -1 54 -27 70 -63 187 -84 292 -50 39 13 68 32 104 69 71 71 104 113 93
116 -5 2 -3 26 3 55 11 45 10 62 -4 113 -18 62 -51 125 -81 149 -9 7 -16 18
-16 23 0 6 26 47 59 91 243 340 408 745 476 1171 8 49 18 92 22 96 5 3 30 12
58 19 75 18 115 41 162 90 116 121 108 322 -17 435 -48 43 -96 66 -160 75 -43
6 -45 8 -52 46 -71 392 -135 598 -271 871 -65 132 -131 242 -209 351 l-59 83
25 33 c118 154 82 366 -77 457 -109 62 -213 60 -322 -6 l-58 -34 -76 59 c-365
282 -811 468 -1290 538 l-54 8 -13 57 c-8 32 -22 75 -33 96 -25 49 -91 109
-149 134 -49 22 -141 31 -187 19z m63 -299 c3 -311 7 -297 -82 -269 -190 60
-256 302 -124 452 47 54 127 97 173 93 l30 -3 3 -273z m-288 -89 c45 -138 153
-216 297 -216 82 1 133 21 200 78 42 36 81 103 92 159 9 40 26 42 155 21 302
-50 651 -180 924 -344 126 -76 262 -171 313 -218 l27 -25 -32 -60 c-27 -53
-31 -71 -31 -137 0 -92 26 -155 87 -218 59 -60 125 -87 218 -87 62 -1 85 4
131 27 31 15 59 27 62 27 3 0 44 -57 91 -127 193 -289 333 -622 401 -951 15
-70 27 -153 28 -186 l2 -59 -52 -17 c-29 -9 -60 -23 -70 -30 -55 -42 -89 -81
-114 -135 -78 -163 1 -354 174 -417 32 -12 61 -28 64 -36 8 -20 -23 -205 -59
-346 -69 -273 -203 -577 -360 -811 -48 -71 -95 -140 -105 -152 l-18 -23 -45
23 c-65 32 -195 32 -262 -1 -60 -30 -120 -90 -149 -150 -32 -66 -33 -186 -1
-256 12 -27 22 -52 22 -55 0 -4 -37 -34 -82 -68 -288 -212 -617 -370 -944
-452 -143 -36 -326 -66 -347 -58 -9 3 -21 23 -26 44 -58 215 -333 294 -504
144 -37 -33 -81 -109 -92 -159 -6 -28 -10 -32 -39 -32 -19 0 -73 7 -122 15
-407 70 -787 230 -1120 471 -133 96 -130 93 -103 146 33 65 37 167 9 241 -60
160 -243 238 -403 173 l-57 -24 -25 30 c-53 63 -176 258 -239 378 -85 163
-147 320 -201 505 -47 162 -93 411 -79 424 5 4 35 18 66 31 76 29 141 88 172
155 21 44 26 69 26 132 0 86 -18 137 -70 203 -31 39 -136 100 -172 100 -29 0
-31 22 -13 132 42 257 124 509 244 753 80 161 226 402 263 432 11 9 26 6 68
-15 46 -23 68 -27 135 -27 99 1 160 29 228 105 84 93 102 229 44 339 -15 29
-27 57 -27 62 0 13 181 146 292 215 275 171 654 314 975 369 126 21 133 19
153 -42z m2304 -496 c104 -136 111 -327 18 -466 -33 -50 -41 -56 -75 -59 -137
-11 -277 129 -277 278 0 148 125 277 272 279 31 1 41 -5 62 -32z m-4042 17 c4
-3 -4 -21 -17 -40 -42 -62 -60 -131 -59 -229 1 -96 17 -152 59 -217 14 -20 20
-40 15 -43 -15 -9 -75 20 -117 58 -143 130 -111 368 62 456 43 23 49 24 57 15z
m4866 -1895 c194 -97 218 -352 44 -480 -110 -81 -274 -66 -369 33 -100 103
-104 273 -9 385 43 52 137 93 211 93 49 0 75 -6 123 -31z m-4738 -1918 c11
-17 33 -56 48 -88 23 -51 27 -70 27 -158 0 -89 -3 -107 -28 -160 -15 -32 -39
-74 -54 -93 -24 -33 -27 -33 -77 -27 -93 13 -168 65 -216 149 -26 44 -30 61
-30 126 0 90 19 137 79 197 56 56 114 83 178 83 46 0 54 -3 73 -29z m3975 5
c140 -64 203 -242 135 -375 -29 -57 -113 -128 -173 -146 -84 -25 -101 -21
-140 33 -98 135 -96 353 4 476 27 32 36 36 77 36 28 0 67 -10 97 -24z"/>
<path d="M4839 7750 c-652 -40 -1240 -358 -1636 -885 -596 -794 -588 -1874 20
-2680 86 -114 304 -329 423 -417 306 -227 646 -369 1014 -423 161 -24 563 -16
727 14 1098 204 1883 1218 1803 2328 -6 82 -15 166 -21 188 -6 22 -18 78 -28
125 -44 207 -98 355 -208 575 -100 199 -218 361 -387 531 -455 455 -1059 683
-1707 644z m66 -220 l0 -175 -135 -16 c-74 -10 -165 -25 -202 -33 -253 -60
-518 -190 -720 -352 -44 -36 -79 -56 -105 -60 l-38 -6 -110 117 -109 118 39
34 c169 146 333 255 520 344 230 109 428 165 730 203 17 2 53 3 80 2 l50 -1 0
-175z m305 170 c417 -49 775 -193 1095 -439 32 -25 66 -51 74 -57 12 -10 -5
-32 -104 -138 -65 -69 -124 -126 -130 -126 -7 0 -41 22 -77 49 -285 216 -628
339 -998 360 l-115 6 -3 165 c-1 90 0 170 2 177 7 16 134 17 256 3z m-302
-589 c2 -134 -1 -198 -9 -207 -6 -8 -27 -14 -46 -14 -45 0 -226 -37 -269 -55
-31 -13 -41 -12 -119 15 -158 53 -373 84 -513 73 -45 -3 -82 -4 -82 0 0 3 51
39 113 80 183 122 361 203 559 253 113 29 273 53 328 51 l35 -2 3 -194z m304
184 c271 -36 534 -135 753 -284 86 -58 135 -95 135 -103 0 -1 -77 -2 -170 0
-190 4 -316 -11 -450 -54 -74 -23 -83 -24 -122 -11 -69 23 -155 39 -283 51
l-120 11 -3 190 c-1 104 0 195 2 202 7 17 120 17 258 -2z m1318 -234 c349
-358 563 -820 611 -1317 7 -67 9 -129 6 -138 -5 -13 -22 -16 -104 -15 -54 1
-132 4 -173 8 l-75 6 -7 90 c-20 249 -124 578 -235 742 -21 32 -43 69 -50 83
-19 44 -129 183 -224 283 -53 57 -89 103 -86 111 8 19 220 245 232 246 5 0 52
-44 105 -99z m-2958 -88 c129 -129 135 -146 67 -216 -44 -45 -149 -179 -167
-213 -7 -14 -25 -24 -51 -28 -61 -9 -81 -42 -81 -131 0 -58 -6 -85 -29 -136
-66 -146 -124 -375 -139 -548 -7 -83 -8 -85 -36 -92 -16 -5 -97 -9 -179 -10
l-151 -1 3 59 c18 417 183 862 451 1213 73 96 178 210 193 210 7 0 60 -48 119
-107z m1336 -255 c1 -78 -1 -138 -6 -138 -5 0 -16 8 -23 17 -27 32 -158 131
-218 164 -34 19 -61 37 -61 41 0 13 223 57 275 55 l30 -2 3 -137z m249 133
c96 -14 173 -32 173 -40 0 -4 -26 -19 -57 -35 -78 -38 -165 -97 -244 -168 -36
-32 -69 -58 -72 -58 -9 0 -9 295 0 303 9 10 127 8 200 -2z m1136 -119 c73 -84
157 -192 157 -205 0 -4 -53 -6 -117 -5 l-118 3 -3 143 c-1 78 1 142 5 141 5 0
38 -35 76 -77z m-2085 -7 c121 -17 194 -37 281 -77 125 -57 257 -161 322 -255
l29 -42 0 -810 c0 -489 -4 -812 -9 -816 -5 -3 -12 -1 -15 4 -11 17 -260 151
-281 151 -5 0 -23 7 -39 15 -86 45 -329 93 -511 100 -71 3 -133 9 -138 14 -4
4 -5 142 -2 307 3 164 7 550 10 856 l6 557 32 4 c75 9 219 6 315 -8z m1815 -7
c16 -12 17 -73 15 -861 l-3 -848 -125 -5 c-69 -3 -139 -7 -157 -8 -17 -1 -35
-5 -39 -9 -4 -4 -16 -7 -26 -7 -19 0 -48 -8 -203 -57 -86 -28 -342 -154 -399
-198 -19 -15 -40 -24 -46 -20 -7 4 -10 265 -10 819 l0 812 40 54 c128 171 377
298 648 330 113 13 286 12 305 -2z m-2355 -109 l-3 -84 -77 -3 c-43 -2 -78 0
-78 3 0 27 139 190 152 177 5 -5 8 -47 6 -93z m2941 -370 c80 -189 125 -368
138 -552 l6 -88 -104 3 -104 3 -3 378 c-1 224 1 377 7 377 5 0 32 -54 60 -121z
m-259 -804 c0 -492 -4 -896 -9 -899 -4 -3 -84 10 -177 29 -219 45 -433 60
-635 46 -138 -11 -163 -14 -289 -45 -30 -8 -57 -12 -60 -9 -9 9 53 51 151 102
257 135 472 180 744 158 53 -5 75 -3 93 9 53 35 52 29 52 791 0 390 0 710 0
713 0 3 29 3 65 2 l65 -4 0 -893z m-2675 755 c-1 -74 -5 -394 -9 -710 -8 -517
-8 -578 7 -606 29 -57 37 -59 206 -61 188 -2 187 -2 281 -15 41 -5 80 -14 87
-20 7 -5 17 -7 22 -4 6 4 18 2 28 -3 10 -6 45 -17 78 -26 91 -25 191 -70 283
-128 83 -53 107 -83 55 -71 -16 4 -32 10 -38 14 -5 4 -28 10 -50 13 -22 3 -58
10 -80 16 -85 22 -344 33 -510 21 -88 -6 -177 -15 -197 -21 -20 -5 -54 -11
-75 -14 -21 -2 -78 -13 -128 -25 -49 -11 -96 -18 -102 -15 -10 3 -13 191 -13
893 0 489 3 892 7 896 4 4 39 5 78 4 l70 -3 0 -135z m-337 -292 l-3 -283 -60
0 -60 0 2 82 c1 45 12 127 23 182 24 118 80 301 92 301 5 0 7 -127 6 -282z
m-166 -468 c10 -212 70 -465 142 -608 25 -50 26 -56 26 -252 0 -199 0 -201 24
-225 36 -36 62 -38 151 -11 l80 24 33 -31 c17 -17 32 -35 32 -40 0 -4 -52 -67
-116 -138 -135 -151 -110 -150 -232 -4 -260 310 -435 709 -486 1106 -12 92
-22 273 -17 312 1 4 81 6 179 5 l177 -3 7 -135z m166 -197 c1 -210 -1 -333 -7
-333 -10 0 -46 105 -75 216 -29 114 -56 373 -47 447 1 4 29 7 64 5 l62 -3 3
-332z m3408 317 c14 -14 -2 -240 -26 -360 -12 -58 -36 -150 -54 -205 -39 -115
-107 -275 -118 -275 -10 0 -11 834 -1 843 10 11 188 8 199 -3z m402 -60 c5
-73 -15 -262 -39 -380 -81 -396 -270 -765 -538 -1050 l-71 -75 -120 123 c-66
67 -120 128 -120 135 0 7 20 32 43 55 l44 43 44 -15 c61 -22 74 -20 111 13
l33 29 3 119 4 118 64 130 c107 218 170 446 181 660 9 169 -8 156 190 153
l168 -3 3 -55z m-2912 -1089 c169 -112 383 -191 599 -218 l60 -8 0 -200 0
-200 -80 1 c-262 3 -644 149 -900 343 -93 70 -185 152 -185 165 1 6 24 36 53
67 l53 55 99 12 c55 7 123 14 150 16 28 1 60 3 71 4 12 1 48 -16 80 -37z
m1474 30 c0 -17 -170 -103 -281 -142 -136 -48 -255 -70 -383 -72 l-101 -2 0
30 c0 28 5 32 91 67 152 62 372 112 539 121 113 7 135 7 135 -2z m-1238 -16
c127 -20 277 -63 381 -107 43 -19 47 -23 47 -54 0 -33 -1 -34 -44 -34 -60 0
-189 25 -283 56 -86 27 -303 132 -303 145 0 13 104 10 202 -6z m1480 3 l90
-12 69 -75 c38 -41 69 -80 69 -87 0 -19 -104 -108 -210 -179 -182 -122 -419
-222 -631 -265 -109 -22 -359 -46 -384 -36 -13 5 -15 32 -13 208 l3 203 115 6
c137 7 213 21 340 61 100 32 255 106 330 157 52 35 82 38 222 19z m-2202 -36
c0 -5 -13 -21 -28 -35 l-29 -28 -24 20 c-19 15 -21 21 -9 24 8 3 29 10 45 15
39 13 45 14 45 4z m2468 -12 c34 -7 65 -17 68 -22 7 -11 -44 -68 -61 -68 -15
0 -107 95 -99 102 3 4 11 5 17 3 7 -2 40 -9 75 -15z m-2445 -185 c267 -244
672 -424 1015 -451 45 -4 90 -12 98 -19 14 -10 18 -40 22 -177 2 -91 1 -167
-4 -170 -17 -9 -264 22 -381 47 -339 74 -676 238 -938 457 -49 41 -100 86
-112 99 l-22 25 120 127 c66 70 123 127 126 127 2 0 37 -29 76 -65z m2577
-101 l125 -125 -45 -40 c-389 -341 -875 -535 -1380 -551 l-105 -3 0 180 0 179
45 -2 c64 -4 249 16 360 39 294 60 603 213 815 404 28 24 52 44 55 45 3 0 61
-56 130 -126z"/>
<path d="M7206 8451 c-3 -4 47 -59 110 -122 71 -70 142 -153 184 -214 111
-162 236 -311 385 -460 144 -145 364 -330 377 -317 4 4 -1 32 -11 62 -11 30
-35 107 -55 171 -89 289 -252 523 -456 655 -86 55 -142 83 -280 137 -202 80
-249 96 -254 88z"/>
<path d="M2600 8393 c-19 -8 -90 -37 -157 -65 -280 -115 -453 -245 -580 -437
-76 -114 -105 -183 -157 -368 -25 -87 -52 -175 -60 -195 -17 -39 -7 -59 15
-32 7 9 79 71 159 137 208 174 290 260 414 437 142 203 251 341 354 451 85 91
88 105 12 72z"/>
<path d="M8040 8057 c0 -2 35 -40 78 -83 55 -56 89 -102 119 -159 46 -90 49
-100 133 -430 33 -132 75 -282 91 -333 17 -51 29 -95 27 -98 -3 -2 -21 20 -42
50 -60 88 -195 215 -322 305 -66 46 -154 109 -196 139 -101 72 -197 167 -250
249 -51 79 -58 67 -28 -49 51 -199 143 -361 277 -489 43 -41 168 -146 278
-233 225 -179 349 -300 415 -404 49 -78 66 -90 56 -39 -16 76 -18 227 -7 443
18 333 -3 493 -85 657 -81 159 -189 286 -319 372 -79 53 -225 119 -225 102z"/>
<path d="M1789 7985 c-235 -86 -457 -339 -519 -590 -30 -126 -40 -299 -28
-482 7 -87 11 -238 10 -335 -1 -98 1 -178 5 -178 5 0 28 33 53 72 65 102 225
266 365 371 144 109 362 325 426 422 66 100 116 203 138 287 24 89 36 178 24
178 -4 0 -24 -30 -43 -68 -49 -95 -162 -202 -374 -356 -98 -71 -209 -160 -247
-199 -60 -60 -177 -219 -191 -258 -3 -8 -8 -12 -11 -9 -3 3 19 77 48 165 30
88 72 247 95 355 70 330 121 453 237 568 79 80 80 82 12 57z"/>
<path d="M8710 7479 c0 -5 12 -32 26 -60 62 -123 91 -353 68 -539 -33 -273
-43 -716 -18 -862 4 -23 3 -38 -4 -38 -5 0 -13 21 -17 48 -9 59 -65 206 -101
263 -57 92 -144 187 -299 324 -178 158 -267 249 -311 318 -27 44 -44 58 -44
38 0 -25 55 -215 87 -300 67 -181 128 -283 323 -541 244 -324 334 -488 377
-683 4 -22 12 -39 17 -38 5 0 19 49 31 109 30 148 58 240 128 422 101 264 123
385 114 630 -12 315 -86 534 -272 799 -70 100 -105 137 -105 110z"/>
<path d="M1157 7398 c-96 -118 -203 -310 -255 -460 -53 -148 -66 -241 -66
-453 -1 -177 1 -197 28 -300 15 -60 66 -210 112 -333 82 -216 124 -356 139
-454 4 -27 10 -48 14 -48 3 0 14 31 23 69 41 172 123 324 349 646 228 324 275
412 342 635 39 128 55 220 39 220 -6 0 -13 -9 -17 -19 -13 -41 -95 -133 -230
-258 -319 -295 -431 -463 -472 -703 -18 -100 -40 -141 -29 -52 17 140 28 371
23 472 -4 63 -16 185 -28 270 -17 117 -23 204 -23 355 -1 183 1 206 22 275 13
41 35 96 49 123 13 27 22 51 20 54 -3 2 -21 -15 -40 -39z"/>
<path d="M9184 6278 c4 -40 2 -116 -4 -168 -20 -175 -65 -312 -219 -666 -73
-167 -110 -287 -157 -506 -15 -71 -31 -128 -36 -128 -5 0 -5 19 -1 43 16 84 6
297 -16 382 -28 106 -107 265 -226 460 -107 174 -183 320 -210 403 -9 28 -21
52 -26 52 -21 0 -2 -245 35 -455 38 -215 109 -484 207 -783 63 -196 73 -266
65 -469 -4 -90 -3 -163 1 -163 5 0 28 31 53 68 25 36 126 170 224 297 219 281
245 320 295 448 100 256 125 394 126 682 0 240 -8 302 -66 482 -37 114 -54
122 -45 21z m-414 -1498 c0 -5 -4 -10 -10 -10 -5 0 -10 5 -10 10 0 6 5 10 10
10 6 0 10 -4 10 -10z m-10 -40 c0 -5 -4 -10 -10 -10 -5 0 -10 5 -10 10 0 6 5
10 10 10 6 0 10 -4 10 -10z m-10 -40 c0 -5 -4 -10 -10 -10 -5 0 -10 5 -10 10
0 6 5 10 10 10 6 0 10 -4 10 -10z"/>
<path d="M710 6214 c-88 -297 -98 -538 -35 -849 69 -341 127 -456 401 -785 76
-91 166 -209 201 -262 36 -54 69 -98 75 -98 7 0 9 16 5 45 -16 112 -19 236 -8
317 6 48 48 212 92 365 107 369 143 522 173 738 38 276 44 416 18 415 -4 0
-22 -48 -41 -105 -26 -82 -52 -135 -119 -242 -167 -268 -263 -488 -292 -675
-13 -77 -9 -290 5 -335 4 -13 3 -23 -2 -23 -5 0 -27 80 -47 178 -46 217 -85
336 -177 540 -181 402 -232 587 -214 779 4 44 3 73 -3 73 -5 0 -19 -34 -32
-76z"/>
<path d="M8301 5044 c-72 -202 -98 -369 -141 -899 -34 -417 -75 -606 -177
-808 -36 -72 -36 -102 1 -69 36 32 211 152 421 288 308 198 478 347 622 541
204 275 310 606 288 899 -7 99 -18 120 -29 57 -12 -65 -47 -165 -87 -245 -59
-118 -177 -266 -369 -463 -192 -197 -231 -244 -370 -445 -103 -148 -160 -226
-160 -217 0 3 15 34 34 69 38 71 76 172 103 268 14 52 18 101 17 245 -1 169
-4 193 -43 395 -34 168 -44 246 -48 358 -3 78 -9 142 -13 142 -5 0 -26 -52
-49 -116z"/>
<path d="M1584 4982 c-1 -107 -8 -158 -42 -325 -57 -272 -69 -389 -54 -532 15
-137 49 -259 105 -374 54 -111 53 -108 34 -92 -10 7 -58 75 -109 150 -129 192
-176 249 -405 484 -112 115 -233 248 -269 295 -75 100 -157 261 -175 345 -26
124 -45 54 -35 -132 9 -166 37 -301 92 -435 120 -293 301 -500 656 -753 130
-92 596 -393 609 -393 14 0 12 4 -50 138 -32 70 -63 143 -69 162 -33 108 -61
316 -97 705 -29 311 -53 479 -91 629 -27 107 -81 256 -92 256 -4 0 -8 -57 -8
-128z"/>
<path d="M7988 4203 c-255 -341 -303 -435 -450 -877 -125 -376 -208 -537 -364
-705 -31 -34 -55 -64 -52 -66 2 -2 33 5 68 16 36 11 200 47 364 80 329 65 426
94 574 168 445 224 792 630 886 1039 8 34 10 62 6 62 -5 0 -23 -26 -40 -59
-46 -86 -151 -212 -240 -289 -108 -93 -241 -173 -552 -333 -283 -145 -451
-249 -558 -346 -127 -116 -165 -127 -61 -18 145 153 245 312 294 470 33 105
50 191 81 405 39 260 70 397 121 523 17 41 -16 11 -77 -70z"/>
<path d="M1880 4231 c0 -6 9 -34 21 -63 31 -80 66 -234 98 -443 37 -237 54
-319 88 -420 54 -165 140 -303 278 -442 134 -136 94 -121 -117 45 -145 113
-225 159 -553 322 -368 183 -498 270 -625 421 -47 57 -121 169 -133 203 -3 6
-8 8 -12 4 -14 -13 46 -195 105 -313 125 -252 341 -487 620 -675 206 -139 320
-177 766 -255 142 -25 294 -55 338 -66 43 -11 80 -18 83 -15 3 2 -23 32 -56
65 -162 162 -239 310 -386 741 -118 344 -191 485 -393 752 -103 137 -122 158
-122 139z"/>
<path d="M7359 3306 c-137 -106 -265 -222 -524 -477 -126 -124 -257 -243 -290
-266 -120 -81 -269 -144 -457 -193 -85 -22 -113 -40 -64 -40 40 0 226 -38 466
-95 482 -114 671 -133 927 -90 355 60 768 343 929 638 26 49 26 78 -1 40 -32
-46 -172 -146 -268 -193 -181 -87 -355 -123 -747 -155 -245 -19 -400 -39 -563
-70 -137 -27 -157 -29 -157 -17 0 4 39 20 88 34 173 54 324 162 419 300 60 87
87 139 196 368 46 96 100 199 120 227 19 29 32 55 28 57 -4 3 -50 -28 -102
-68z"/>
<path d="M2508 3298 c57 -93 91 -157 167 -308 158 -317 271 -449 457 -539 57
-27 136 -57 176 -66 39 -9 72 -21 72 -26 0 -13 -10 -12 -175 20 -174 34 -267
45 -572 66 -395 27 -544 54 -722 129 -93 39 -167 86 -255 160 -36 31 -66 51
-66 45 0 -30 105 -166 209 -270 169 -168 341 -275 556 -347 150 -50 272 -66
464 -59 227 7 351 30 786 144 93 24 209 49 259 56 49 7 91 17 93 22 2 6 -25
17 -59 24 -89 18 -239 67 -325 107 -139 63 -230 132 -453 346 -265 253 -360
338 -497 445 -117 90 -147 104 -115 51z"/>
<path d="M5317 2340 c-115 -11 -245 -38 -271 -56 -28 -19 -72 -18 -139 5 -143
49 -398 65 -595 35 -202 -30 -387 -91 -755 -251 -132 -57 -282 -116 -335 -130
-90 -25 -112 -27 -302 -27 -139 -1 -223 3 -260 12 -101 25 -184 54 -264 94
-43 22 -81 36 -85 33 -10 -11 130 -138 215 -195 94 -64 270 -149 379 -183 265
-83 588 -51 877 87 84 40 248 143 428 270 200 141 312 189 445 190 73 0 125
-9 125 -22 0 -4 -30 -23 -67 -41 -248 -122 -521 -313 -773 -543 -91 -82 -108
-103 -99 -115 25 -29 169 -145 178 -141 4 1 35 37 69 78 176 220 544 526 786
654 101 54 123 55 203 11 240 -131 562 -392 794 -645 46 -49 89 -90 95 -90 12
0 174 148 174 159 0 9 -175 163 -280 247 -172 138 -387 277 -567 368 -51 25
-93 50 -93 55 0 13 142 25 210 18 85 -9 156 -39 261 -112 290 -198 367 -247
460 -293 221 -108 399 -152 616 -152 242 0 439 62 659 204 86 57 264 219 253
231 -4 3 -30 -8 -59 -25 -230 -135 -575 -174 -865 -97 -88 23 -401 145 -494
191 -262 132 -635 203 -924 176z"/>
</g>
</svg>
